<?xml version="1.0" encoding="UTF-8"?>
<svg data-bbox="0 0 118 64.973" xmlns="http://www.w3.org/2000/svg" viewBox="0 0 118 65" height="65" width="118" data-type="color">
    <g>
        <path fill="#000000" d="M96.115.296c-1.938.892-2.179 3.739-.412 4.94 1.2.823 2.624.72 3.619-.275 1.509-1.492 1.115-3.808-.772-4.665-.892-.395-1.544-.395-2.435 0" data-color="1"/>
        <path fill="#000000" d="M8.644 8.528c-3.276.892-5.952 3.053-7.444 6.02-1.578 3.122-1.56 6.792.034 10.12.566 1.166.978 1.715 2.179 2.915 2.452 2.436 4.682 3.345 8.163 3.345 1.853-.017 2.213-.069 3.534-.532 3.378-1.2 5.917-3.704 7.117-7.015.258-.686.515-2.006.652-3.361.292-2.59.618-3.43 1.818-4.614 1.166-1.183 2.195-1.612 3.945-1.68 1.99-.087 3.156.342 4.476 1.663 1.201 1.2 1.733 2.487 1.733 4.168 0 2.16-1.03 4.013-2.779 5.076-1.2.72-1.87.892-3.362.892-1.526 0-2.812-.377-3.601-1.063-.343-.309-.67-.463-.738-.378-.085.086-.651 1.047-1.286 2.127l-1.132 1.956.48.497c.652.686 2.985 1.8 4.408 2.092 3.567.755 7.272-.36 10.033-3.001 1.218-1.184 2.127-2.573 2.796-4.357.515-1.303.532-1.526.549-3.79 0-2.178-.052-2.521-.463-3.653-1.252-3.465-3.876-6.072-7.22-7.186-1.236-.412-1.664-.464-3.637-.464-2.007-.017-2.367.035-3.602.464-4.63 1.629-7.392 5.316-7.803 10.445-.24 2.932-1.252 4.648-3.38 5.728-.891.446-1.165.497-2.623.497-1.407 0-1.767-.068-2.573-.445-1.183-.567-2.281-1.664-2.881-2.899-.395-.806-.463-1.15-.463-2.487 0-1.303.068-1.698.446-2.504.566-1.183 1.56-2.212 2.76-2.847.824-.429 1.064-.48 2.625-.463.943 0 1.87.051 2.041.086.274.051.48-.31 1.32-2.316.55-1.32.961-2.452.91-2.521-.206-.343-2.007-.703-3.842-.772-1.578-.051-2.213 0-3.19.257" data-color="1"/>
        <path fill="#000000" d="M47.457 8.631c-1.938.738-3.619 2.522-4.236 4.494-.326 1.046-.343 1.595-.343 9.33v8.216h5.66V15.61l.532-.445c.84-.72 1.68-.532 2.023.429.12.36.189 2.95.189 7.803v7.273h6.003v-7.53c0-7.135.017-7.546.326-7.924.24-.308.497-.411 1.029-.411.377 0 .772.086.892.206.411.411.497 1.8.497 8.575v7.084h5.831v-7.787c0-4.477-.068-8.164-.171-8.696-.429-2.264-2.007-4.39-3.996-5.317-1.08-.497-1.287-.531-2.521-.463-1.75.103-2.933.67-4.117 1.973l-.874.96-.275-.411c-.514-.755-1.544-1.63-2.384-2.041-1.046-.498-3.104-.635-4.065-.258" data-color="1"/>
        <path fill="#000000" d="M72.6 8.974c-2.075 1.03-3.464 2.882-3.824 5.077-.103.635-.172 4.356-.172 8.85v7.77h5.66V15.715l.498-.498c.583-.583 1.183-.634 1.75-.171l.41.326.052 7.65.052 7.649h5.985V15.715l.498-.498c.789-.789 1.715-.617 2.058.378.12.36.189 2.95.189 7.803v7.273h5.831v-8.027c0-4.768-.086-8.318-.189-8.764-.497-2.179-2.35-4.46-4.185-5.146-.84-.326-1.269-.377-2.315-.326-1.698.103-2.71.566-3.91 1.801l-.978.995-1.03-1.046c-1.869-1.904-4.115-2.316-6.38-1.184" data-color="1"/>
        <path fill="#000000" d="M94.503 19.608v10.891h5.831V8.717h-5.831z" data-color="1"/>
        <path fill="#000000" d="M103.25 11.633v2.915h4.459V30.5h5.832V14.548H118V8.717h-14.75z" data-color="1"/>
        <path fill="#C91517" d="M0 50.909v14.064h118V36.845H0zm18.215-5.849c1.217.463 2.744 1.835 3.31 2.933.926 1.818.892 4.134-.052 5.883-.617 1.15-2.058 2.418-3.258 2.881-.567.206-1.544.412-2.333.464-3.156.188-5.643-1.132-6.895-3.67-.446-.91-.497-1.184-.497-2.642 0-1.32.086-1.784.394-2.47.79-1.75 2.076-2.864 4.065-3.584 1.218-.43 3.91-.326 5.266.205m35.605-.24c.6.137 1.304.377 1.578.515l.498.257-.584 1.39c-.325.771-.617 1.423-.651 1.457s-.48-.086-.995-.274c-2.075-.72-3.928-.6-3.928.257 0 .36.138.463.91.669.48.137 1.166.309 1.491.36 2.076.395 3.568 1.286 4.048 2.435.703 1.647-.206 3.774-1.99 4.683-1.611.806-4.802.892-7.031.188-1.87-.583-1.853-.566-1.115-2.28L46.685 53l.927.412c2.023.892 4.699.926 4.699.069 0-.446-.257-.55-2.538-1.115-3.07-.755-4.15-1.698-4.15-3.67 0-1.819 1.08-3.174 3-3.791 1.27-.395 3.67-.446 5.197-.086m26.465.017c1.852.55 3.19 1.647 4.047 3.328.43.857.48 1.097.48 2.744 0 1.543-.068 1.92-.411 2.607-.652 1.355-1.63 2.298-3.07 3.001-1.287.635-1.338.652-3.276.652-1.87 0-2.058-.034-3.122-.532-1.526-.737-2.435-1.595-3.104-2.95-1.372-2.761-.583-6.02 1.887-7.838 1.612-1.2 4.442-1.63 6.569-1.012m-46.669 1.527v1.63h-5.848l.051.977.052.995 2.538.051 2.521.051v3.071h-5.145V57.1l-2.007-.052-2.024-.051-.051-6.14-.034-6.124h9.947zm11.234 0v1.543l-2.864.052-2.881.034v2.058h4.973v3.088h-4.956l-.052 1.92-.051 1.939-2.007.05-2.024.052V44.734l4.94.035 4.922.051zm16.894.514v2.144h3.773v-4.288h4.117v12.349h-4.117v-4.631h-3.773v4.631h-4.116V44.734h4.116zm31.901-1.955c2.11.343 3.55 1.475 4.048 3.224.515 1.716.017 3.396-1.338 4.546l-.72.617 1.235 1.8c.686.979 1.235 1.836 1.235 1.888 0 .05-.978.068-2.178.05l-2.196-.05-1.012-1.51c-.943-1.372-1.063-1.492-1.595-1.492h-.566v3.087h-4.116V44.734h3.053c1.663 0 3.533.086 4.15.19m15.694 1.44v1.544l-2.95.052-2.967.034v1.372h5.145v2.916h-5.145v1.544h6.174v3.259h-10.12v-12.35l4.94.035 4.923.051z" data-color="2"/>
        <path fill="#C91517" d="M14.51 47.993c-1.132.343-1.853 1.475-1.853 2.916 0 .532.12 1.2.258 1.475 1.046 2.024 3.841 2.041 4.768.017.72-1.612.171-3.499-1.218-4.202-.806-.394-1.15-.446-1.955-.206" data-color="2"/>
        <path fill="#C91517" d="M77.095 48.079c-2.161.772-2.401 4.288-.378 5.488 1.167.686 2.916.206 3.636-.977.498-.84.48-2.59-.051-3.448-.686-1.08-1.99-1.509-3.207-1.063" data-color="2"/>
        <path fill="#C91517" d="M90.559 49.366v1.372h1.2c1.458 0 1.887-.31 1.887-1.355 0-.995-.566-1.39-1.99-1.39h-1.098z" data-color="2"/>
    </g>
</svg>
